<?xml version="1.0" encoding="UTF-8"?>
<svg viewBox="0 0 326 478" version="1.1" xmlns="http://www.w3.org/2000/svg" xmlns:xlink="http://www.w3.org/1999/xlink">
    <!-- Generator: Sketch 53.2 (72643) - https://sketchapp.com -->
    <title>quest</title>
    <desc>Created with Sketch.</desc>
    <path d="M171.708768,323.204711 C190.487255,303.323422 202,276.506184 202,247 C202,192.677056 162.977113,147.468396 111.434239,137.87692 L79.79353,20.6549224 L79.834603,20.6549224 C79.779839,20.4183094 79.752457,20.1816964 79.752457,19.9450834 C79.752457,8.93562007 133.489897,2.84217094e-14 199.809429,2.84217094e-14 L202,2.84217094e-14 L204.190571,2.84217094e-14 C270.496412,2.84217094e-14 324.247543,8.93562007 324.247543,19.9450834 C324.247543,20.1816964 324.220161,20.4183094 324.165397,20.6549224 L324.20647,20.6549224 L284.06426,169.373147 L284.050569,169.373147 C279.217622,191.378156 259.228663,209.416417 232.626918,216.974114 C231.011372,220.857351 230.066689,227.593862 235.789555,236.821769 C246.947775,241.178231 254.026057,247.692048 254.026057,254.971377 C254.026057,263.572955 244.154797,271.088897 229.395826,275.278339 C228.423761,277.171243 226.452247,278.911044 223.782489,280.344641 C225.042067,298.04886 233.366236,361.92045 287.514409,406.125324 C310.87137,413.43249 325.561886,423.732114 325.986309,435.15913 L326,435.15913 L326,440.865679 C326,461.367498 270.660704,478 202.397041,478 L202,478 L201.61665,478 C133.339296,478 78,461.367498 78,440.865679 L78,435.15913 L78.013691,435.15913 C78.424423,423.732114 93.114939,413.43249 116.499282,406.125324 C147.496954,380.813395 163.474504,349.053213 171.708768,323.204711 Z M103,26.6753052 C116.232325,31.6758106 154.909838,35.2953586 200.562467,35.2953586 C257.137154,35.2953586 303,29.7367372 303,22.87983 C303,19.4602274 291.593412,16.3635224 273.140169,14.1181435 C276.305907,15.314478 278.015236,16.5898544 278.015236,17.9136186 C278.015236,24.7705257 232.15239,30.3291472 175.577702,30.3291472 C147.217332,30.3291472 121.548767,28.9323075 103,26.6753052 Z" id="Combined-Shape" fill-rule="nonzero"></path>
    <path d="M91,338 C40.7420878,338 -1.42108547e-14,297.257912 -1.42108547e-14,247 C-1.42108547e-14,196.742088 40.7420878,156 91,156 C141.257912,156 182,196.742088 182,247 C182,297.257912 141.257912,338 91,338 Z M100.701613,237.298387 L100.701613,190 L80.2983871,190 L80.2983871,237.298387 L33,237.298387 L33,257.701613 L80.2983871,257.701613 L80.2983871,305 L100.701613,305 L100.701613,257.701613 L148,257.701613 L148,237.298387 L100.701613,237.298387 Z" id="Combined-Shape"></path>
</svg>