<?xml version="1.0" encoding="UTF-8"?>
<svg viewBox="0 0 19 21" version="1.1" xmlns="http://www.w3.org/2000/svg" xmlns:xlink="http://www.w3.org/1999/xlink">
  <!-- Generator: Sketch 52.5 (67469) - http://www.bohemiancoding.com/sketch -->
  <title>bold</title>
  <desc>Created with Sketch.</desc>
  <path d="M0,0 L11.8907749,0 C13.8725806,0 15.3939676,0.501359243 16.4549815,1.50409277 C17.5159955,2.5068263 18.0464945,3.74828728 18.0464945,5.22851296 C18.0464945,6.46999256 17.6679005,7.5347841 16.9107011,8.42291951 C16.4059015,9.01500978 15.6674095,9.48294508 14.695203,9.82673943 C16.1722091,10.1896335 17.2589141,10.8127514 17.9553506,11.6961119 C18.651787,12.5794724 19,13.689625 19,15.026603 C19,16.1152851 18.752278,17.0941294 18.2568266,17.9631651 C17.7613751,18.8322008 17.0836451,19.5197792 16.2236162,20.0259209 C15.6907722,20.3410657 14.8868442,20.5702585 13.8118081,20.7135061 C12.3815427,20.904503 11.4327207,21 10.9653137,21 L0,21 L0,0 Z M7,8 L9.55181347,8 C10.4671894,8 11.1040569,7.8249418 11.4624352,7.47482014 C11.8208135,7.12469849 12,6.61870835 12,5.95683453 C12,5.34292259 11.8208135,4.86331108 11.4624352,4.51798561 C11.1040569,4.17266014 10.4801426,4 9.59067358,4 L7,4 L7,8 Z M7,17 L10.1216216,17 C11.1756809,17 11.9189168,16.8136943 12.3513514,16.4410774 C12.7837859,16.0684605 13,15.5679044 13,14.9393939 C13,14.3557771 12.7860382,13.886646 12.3581081,13.5319865 C11.930178,13.1773271 11.1801855,13 10.1081081,13 L7,13 L7,17 Z"></path>
</svg>
