<?xml version="1.0" encoding="UTF-8"?>
<svg viewBox="0 0 31.5 31.5" version="1.1" xmlns="http://www.w3.org/2000/svg" xmlns:xlink="http://www.w3.org/1999/xlink">
  <!-- Generator: Sketch 52.5 (67469) - http://www.bohemiancoding.com/sketch -->
  <title>logo-CanonCraft</title>
  <desc>Created with Sketch.</desc>
  <path d="M18.4670034,5.897122 L18.1023496,7.2823672 C18.7843156,7.4730072 19.432816,7.7448107 20.03698,8.0868154 L20.720392,6.8819422 L20.901835,6.9885722 L20.218854,8.1926875 C20.678744,8.467876 21.111499,8.7843293 21.5121,9.1369877 L21.341073,9.2688689 C20.072545,8.1633664 18.4779535,7.4280186 16.7223867,7.2292953 L17.4314829,12.2995672 L25.312824,6.2520674 L24.077497,7.8619941 C25.865284,9.7692864 27.014988,12.2911553 27.182241,15.080345 L30.689751,15.5921788 L27.199238,16.1015322 C27.121378,19.0423353 25.952501,21.7088375 24.085886,23.7044653 L23.30193,22.6707005 C23.700973,22.2263112 24.061933,21.7464993 24.379619,21.2365008 L23.151065,20.5145099 C22.929257,20.8664897 22.683405,21.2015514 22.415841,21.5173446 L22.284756,21.3444897 C23.393762,20.021522 24.11428,18.3567495 24.268816,16.5291544 L17.6253463,17.4986034 L17.6247789,17.5026601 L18.5778756,17.3647707 L17.9475757,17.9950705 L17.6039683,17.651463 L17.4098044,19.0397992 L24.174865,24.2307563 L24.147176,24.1946704 L17.9900988,18.0375936 L18.677307,17.3503854 L19.111958,17.2875022 L25.312824,25.3687151 L23.680798,24.116431 C21.735133,25.9986683 19.131274,27.1943936 16.2521407,27.3174763 L15.7590028,30.8435754 L15.2658648,27.3174763 C12.3867316,27.1943936 9.7828721,25.9986683 7.8372079,24.116431 L6.2051818,25.3687151 L12.4051393,17.2886852 L12.6434642,17.3231649 L7.3431405,24.2307563 L7.3792264,24.2030669 L13.5363032,18.0459901 L14.0396014,18.5492884 L14.0257735,18.4504143 L13.5788263,18.003467 L13.9160977,17.6661957 L13.8926593,17.4986034 L7.2491894,16.5291543 C7.403948,18.3593803 8.1263193,20.0263145 9.2380411,21.3502008 L9.1069806,21.5230238 C8.8230656,21.1885031 8.5635344,20.8323134 8.3311637,20.4572544 L7.1181099,21.1663456 L7.0133534,20.9826393 L8.2219406,20.276159 C7.9068071,19.7392355 7.6464904,19.1657287 7.4487607,18.5634737 L6.133545,18.9202796 L6.0793191,18.7153818 L7.3850248,18.3611558 C7.2049021,17.7644116 7.0857913,17.1408643 7.0350187,16.4979014 L5.5981132,16.2882208 C5.7150503,18.7425887 6.6873897,20.9707756 8.2210477,22.6762334 L7.4371836,23.7098763 C5.5676187,21.7136587 4.3966981,19.044994 4.3187675,16.1015322 L0.8282548,15.5921788 L4.3357648,15.080345 C4.5036139,12.2812035 5.6609386,9.7512936 7.4596694,7.8416018 L6.2051818,6.2067039 L14.0922521,12.2586 L14.7956188,7.2292953 C13.0547726,7.4263523 11.4722139,8.1510723 10.2089111,9.2411379 L10.0377112,9.1091233 C10.43095,8.7662772 10.8547842,8.458152 11.3045276,8.1894735 L10.6161702,6.9823345 L10.7976138,6.8762716 L11.4862331,8.0838698 C12.0894832,7.7429289 12.7368676,7.4719494 13.4175781,7.2818302 L13.051109,5.8970923 C11.4809557,6.3332359 10.062894,7.1393829 8.8949384,8.2166973 L7.8705991,7.4268148 C9.8001615,5.5750826 12.3699721,4.3955206 15.2108259,4.2604277 L15.7590028,0.3407821 L16.3071796,4.2604277 C19.162958,4.3962303 21.744838,5.5875052 23.677765,7.4560549 L22.654086,8.2454276 C21.480282,7.1537371 20.051041,6.3371411 18.4670034,5.897122 Z M18.2643212,5.8430969 C17.6902143,5.696481 17.0966551,5.5990882 16.4883189,5.5556331 L16.6919994,7.0120157 C17.1037483,7.0560152 17.5069756,7.1288064 17.899664,7.2283551 L18.2643212,5.8430969 Z M24.490015,21.0551266 C25.325721,19.6496138 25.837117,18.025584 25.919892,16.2882209 L24.482987,16.4979014 C24.430456,17.1631338 24.304771,17.8075824 24.114045,18.4230651 L25.438686,18.7843494 L25.384461,18.9903427 L24.04847,18.6259628 C23.8462,19.2268479 23.581482,19.7986524 23.262109,20.3335162 L24.490015,21.0551266 Z M25.625307,13.2787175 L24.253139,13.6529645 C24.335758,13.9883357 24.399356,14.3312844 24.44271,14.6805787 L25.89357,14.8922956 C25.846277,14.3407968 25.755709,13.8017807 25.625307,13.2787175 Z M25.571634,13.0725735 C25.143006,11.4938052 24.349694,10.0670133 23.288688,8.8900008 L22.403529,10.0435751 C22.709277,10.4028674 22.986861,10.7872424 23.232827,11.1932192 L24.399896,10.5073613 L24.504652,10.6920498 L23.34065,11.3761058 C23.709576,12.0194122 24.000292,12.7140364 24.19969,13.4467592 L25.571634,13.0725735 Z M18.4601155,25.6802077 L18.1014797,24.3178235 L18.3038537,24.2626278 L18.6617185,25.622083 C19.450991,25.3855553 20.200154,25.0550462 20.896447,24.6434216 L20.196609,23.409588 L20.378053,23.302958 L21.076545,24.5344182 C21.641532,24.1844094 22.170014,23.7802974 22.654896,23.3292379 L21.503647,22.4458631 C20.173536,23.6137826 18.4901397,24.3830727 16.6365037,24.5691538 L16.4330969,26.0235796 C17.1302716,25.9775888 17.80828,25.8607764 18.4601155,25.6802077 Z M5.6244355,14.8922956 L7.0752955,14.6805787 C7.1203333,14.3177176 7.187218,13.9617046 7.2745798,13.6139207 L5.902035,13.2415619 C5.7666131,13.7762433 5.6728492,14.3277288 5.6244355,14.8922956 Z M7.2919776,14.6489594 L12.140219,13.9414792 L9.2645535,10.1937981 C8.2192414,11.426643 7.5131329,12.9606871 7.2919776,14.6489594 Z M12.4393876,14.3313676 L3.7992622,15.5921788 L3.9238729,15.6103626 L14.0408402,15.6103626 L14.0424914,15.4549389 L14.0441426,15.6103626 L15.7410018,15.6103626 L15.7590028,15.6283635 L14.2645357,17.1228306 L14.289861,17.3039147 L14.5506213,17.0431543 L14.5501222,17.1220959 L14.2994854,17.3727327 L15.7590028,27.8087636 L15.7590028,15.7474196 L15.7770037,15.7294187 L17.2432796,17.1956945 L17.2539703,17.1192519 L27.718743,15.5921788 L27.594133,15.5739949 L17.4771653,15.5739949 L17.4755142,15.7294187 L17.473863,15.5739949 L15.7770037,15.5739949 L15.7590028,15.555994 L17.2534698,14.0615269 L15.7590028,3.375594 L15.7590028,15.4369379 L15.7410018,15.4549389 L14.274726,13.988663 L14.2640352,14.0651057 L14.0817823,14.0917009 L14.1068093,14.116728 L14.0529139,14.1163872 L14.0649561,14.1284294 L12.8459956,14.3047827 L12.8843405,14.2664378 L12.7847635,14.2809685 L12.7465641,14.319168 L12.461655,14.3603873 L12.4393876,14.3313676 Z M13.2923824,13.7733497 L13.3919594,13.7588189 L13.5704298,13.5803485 L13.7034464,13.7133651 L13.8926593,13.6857542 L14.0588101,12.4977211 L7.3431405,7.3446627 L7.3708299,7.3807486 L13.5279067,13.5378254 L13.2923824,13.7733497 Z M15.0849087,26.0235799 L14.8815018,24.569154 C14.4511287,24.5259499 14.0299328,24.4513073 13.6202048,24.347536 L13.2537205,25.7323313 C13.845175,25.8833752 14.4572751,25.9821763 15.0849087,26.0235799 Z M14.8511637,24.3522262 L14.1416432,19.2789203 L10.1858273,22.3142915 C11.4662934,23.4271148 13.0777992,24.1632927 14.8511637,24.3522262 Z M24.226028,14.6489594 C24.006162,12.9705274 23.306979,11.4445309 22.271696,10.215386 L19.40909,13.9460471 L24.226028,14.6489594 Z M19.17097,13.9112996 L24.174865,7.3900262 L24.138779,7.4177156 L17.9817023,13.5747924 L17.5493637,13.1424537 L17.5631916,13.2413278 L17.9391792,13.6173154 L17.8394913,13.7170033 L19.17097,13.9112996 Z M16.6668419,24.3522262 C18.4402063,24.1632927 20.051712,23.4271148 21.332178,22.3142914 L17.3763624,19.2789203 L16.6668419,24.3522262 Z M15.0296867,5.5556326 C14.4213632,5.5990873 13.8278161,5.6964769 13.2537205,5.8430877 L13.6202048,7.2278829 C14.0123054,7.1285762 14.4149084,7.0559456 14.8260061,7.0120158 L15.0296867,5.5556326 Z M8.2481439,8.8691729 C7.1857729,10.0412532 6.3896234,11.4628475 5.9561958,13.0366464 L7.3286838,13.4089898 C7.5300598,12.681766 7.8214898,11.992431 8.1900883,11.353978 L7.0133534,10.6661171 L7.1181099,10.4824107 L8.2980033,11.172118 C8.5457094,10.7658348 8.8251374,10.3813268 9.1328081,10.0221024 L8.2481439,8.8691729 Z M8.8631091,23.3292379 C10.0370927,24.4213307 11.4666644,25.2382134 13.051109,25.6783267 L13.4175781,24.2935888 C12.6614555,24.0824074 11.9464519,23.771457 11.2873805,23.3756751 L10.5881008,24.6019679 L10.4066573,24.495905 L11.1084212,23.2652557 C10.722413,23.0206269 10.3566852,22.7464471 10.0143583,22.4458629 L8.8631091,23.3292379 Z M14.127514,14.1374327 L14.3296046,14.3395233 L14.3331634,14.3395458 L14.5458566,14.552239 L14.4668845,14.5517397 L14.0742959,14.1591511 L14.0742959,14.1377692 L14.127514,14.1374327 Z" id="Combined-Shape"></path>
</svg>
