<?xml version="1.0" encoding="UTF-8"?>
<svg viewBox="12 12 188 188" version="1.1" xmlns="http://www.w3.org/2000/svg" xmlns:xlink="http://www.w3.org/1999/xlink">
    <path d="M105.5,26.8867513 L162.616969,59.8632487 C165.71098,61.6495766 167.616969,64.9508468 167.616969,68.5235027 L167.616969,134.476497 C167.616969,138.049153 165.71098,141.350423 162.616969,143.136751 L105.5,176.113249 C102.405989,177.899577 98.5940108,177.899577 95.5,176.113249 L38.3830312,143.136751 C35.2890204,141.350423 33.3830312,138.049153 33.3830312,134.476497 L33.3830312,68.5235027 C33.3830312,64.9508468 35.2890204,61.6495766 38.3830312,59.8632487 L95.5,26.8867513 C98.5940108,25.1004234 102.405989,25.1004234 105.5,26.8867513 Z M84.0934415,67.163203 L45.0284177,67.1394481 C44.634548,67.1394481 44.244486,67.2165315 43.8804919,67.3670031 C42.3493128,67.9999775 41.6211741,69.7543705 42.2541485,71.2855496 L52.0621689,95.0113673 L46.6612065,73.6357327 C46.2553262,72.0293619 47.2285161,70.3981101 48.8348869,69.9922298 C48.9984729,69.9508967 49.1652544,69.9234379 49.333457,69.9101455 L84.0934415,67.163203 L84.0934415,67.163203 Z M152.126207,89.3132616 L160.009008,71.4208173 C160.677006,69.9045902 159.98938,68.1339259 158.473153,67.4659279 C158.092026,67.2980162 157.680112,67.2112999 157.263636,67.2112999 L138.389779,67.2112999 L154.858396,68.8452038 C155.067903,68.8659897 155.274641,68.9087721 155.475191,68.9728439 C157.053457,69.4770691 157.924139,71.1652616 157.419913,72.7435274 L152.126207,89.3132616 Z M78.9483552,151.196449 L90.1490831,167.111781 C90.4669393,167.563429 90.3584795,168.187235 89.9068316,168.505092 C89.622903,168.704912 89.2556488,168.743161 88.9366383,168.606136 L84.6769702,166.776478 L92.5861326,171.345301 C92.9427439,171.551302 93.3891781,171.517609 93.7108323,171.26042 C94.1421816,170.915519 94.2122624,170.286245 93.8673621,169.854895 L78.9483552,151.196449 Z M127.963749,159.745323 L111.783792,168.351619 C111.47828,168.514124 111.110467,168.507132 110.811353,168.333131 C110.333966,168.055426 110.172091,167.443303 110.449796,166.965916 L113.730328,161.326536 L107.005682,169.807879 C106.662556,170.240641 106.73522,170.869623 107.167982,171.212749 C107.49152,171.469275 107.939454,171.500578 108.295527,171.291545 L127.963749,159.745323 Z M44.2263578,85.1115449 L38.5904817,71.8290595 C38.433718,71.459603 38.0712608,71.2196611 37.6699219,71.2196611 C37.1176371,71.2196611 36.6699219,71.6673764 36.6699219,72.2196611 L36.6699219,99.2692332 L37.5349491,75.1743909 C37.5547639,74.6224617 38.018254,74.1910977 38.5701831,74.2109125 C38.9464405,74.2244205 39.2832214,74.448116 39.4415657,74.7896993 L44.2263578,85.1115449 L44.2263578,85.1115449 Z M163.014892,132.755747 C163.559069,132.386909 163.986295,131.837532 164.195856,131.160706 C164.284831,130.873338 164.330078,130.574222 164.330078,130.273396 L164.330078,73.7505586 C164.330078,73.1982739 163.882363,72.7505586 163.330078,72.7505586 C162.9337,72.7505586 162.574735,72.9846781 162.41494,73.347419 L156.031435,87.8381555 L161.136445,78.4532741 C161.311506,78.131449 161.648535,77.9311148 162.014892,77.9311148 C162.567177,77.9311148 163.014892,78.37883 163.014892,78.9311148 L163.014892,132.755747 L163.014892,132.755747 Z M112.772052,35.8883607 L151.742507,60.528376 C152.209311,60.8235241 152.348466,61.4412084 152.053317,61.9080125 C151.880197,62.1818177 151.58517,62.3547997 151.261691,62.3721621 L139.564462,63 L156.908618,63 C157.269055,63 157.601603,62.8060312 157.779045,62.4922967 C158.050933,62.0115729 157.881638,61.4014605 157.400914,61.1295726 L112.772052,35.8883607 Z M73.0257377,63.2041016 L47.4016785,61.5803645 C47.108748,61.5618022 46.8387639,61.4154822 46.6632918,61.1801901 C46.3331228,60.7374635 46.4243688,60.1109078 46.8670954,59.7807388 L52.6118351,55.4965261 L42.3028022,61.3339204 C41.8222144,61.6060488 41.6532247,62.2162458 41.9253531,62.6968336 C42.1028639,63.0103236 42.4352758,63.2041016 42.7955342,63.2041016 L73.0257377,63.2041016 L73.0257377,63.2041016 Z M70.2353742,134.16484 C70.3299452,134.389301 70.4520644,134.602753 70.6,134.8 L97.6,170.8 C98.5941125,172.125483 100.474517,172.394113 101.8,171.4 C102.027417,171.229437 102.229437,171.027417 102.4,170.8 L105.794826,166.273565 L102.193914,168.411778 C100.929105,169.162819 99.3063206,168.886016 98.3620006,167.758158 L70.2353742,134.16484 L70.2353742,134.16484 Z"></path>
</svg>