<?xml version="1.0" encoding="UTF-8"?>
<svg viewBox="0 0 342 311" version="1.1" xmlns="http://www.w3.org/2000/svg" xmlns:xlink="http://www.w3.org/1999/xlink">
    <path d="M255.5,203.396922 C260.328906,201.750506 264.884442,198.909667 268.757066,194.848258 L286.5,176.240381 L286.5,247 C286.5,282.070082 258.070082,310.5 223,310.5 L64,310.5 C28.9299184,310.5 0.5,282.070082 0.5,247 L0.5,85 C0.5,49.9299184 28.9299184,21.5 64,21.5 L155.268216,21.5 C127.100773,26.824993 102.674777,37.1251739 83.1171854,52.5 L64,52.5 C46.0507456,52.5 31.5,67.0507456 31.5,85 L31.5,247 C31.5,264.949254 46.0507456,279.5 64,279.5 L223,279.5 C240.949254,279.5 255.5,264.949254 255.5,247 L255.5,203.396922 Z M232.503004,127.886759 C179.011028,118.69773 132.992237,128.726225 112.392837,161.185533 C99.8853958,180.894014 97.5020762,191.174407 100.221235,213.937783 C102.763026,244.475339 104.861393,252.605761 97.5020762,252.605761 C90.1427596,252.605761 79.6184233,242.762584 66.7338157,216.367234 C50.2210988,179.199285 48.3190599,141.793007 64.7680922,110.856877 C91.133228,61.2712682 156.994607,44.5588433 232.503004,50.4318849 L232.503004,13.1309445 C232.503004,5.95124271 238.323302,0.130944458 245.503004,0.130944458 C248.746648,0.130944458 251.873121,1.34354286 254.268505,3.53063304 L336.988377,79.0574722 C342.290482,83.8985251 342.664239,92.1211798 337.823187,97.4232854 C337.557702,97.7140538 337.279145,97.9926108 336.988377,98.258095 L254.268505,173.784934 C248.9664,178.625987 240.743745,178.25223 235.902692,172.950125 C233.715602,170.55474 232.503004,167.428267 232.503004,164.184623 L232.503004,127.886759 Z"></path>
</svg>