<?xml version="1.0" encoding="UTF-8"?>
<svg viewBox="0 0 28 17" version="1.1" xmlns="http://www.w3.org/2000/svg" xmlns:xlink="http://www.w3.org/1999/xlink">
  <!-- Generator: Sketch 52.5 (67469) - http://www.bohemiancoding.com/sketch -->
  <title>h2</title>
  <desc>Created with Sketch.</desc>
  <path d="M0.684570312,17 L0.684570312,0.536132812 L4.00878906,0.536132812 L4.00878906,7.01611328 L10.5224609,7.01611328 L10.5224609,0.536132812 L13.8466797,0.536132812 L13.8466797,17 L10.5224609,17 L10.5224609,9.80126953 L4.00878906,9.80126953 L4.00878906,17 L0.684570312,17 Z M27.2446289,14.0688477 L27.2446289,17 L16.1826172,17 C16.3024095,15.8919215 16.6617809,14.8418832 17.2607422,13.8498535 C17.8597035,12.8578238 19.0426344,11.5420004 20.8095703,9.90234375 C22.2321035,8.57714181 23.1043278,7.6787133 23.4262695,7.20703125 C23.8605165,6.55566081 24.0776367,5.91178704 24.0776367,5.27539062 C24.0776367,4.57161106 23.8885924,4.03068223 23.510498,3.65258789 C23.1324037,3.27449355 22.6101921,3.08544922 21.9438477,3.08544922 C21.2849902,3.08544922 20.7609069,3.28385218 20.371582,3.68066406 C19.9822572,4.07747594 19.75765,4.73632352 19.6977539,5.65722656 L16.5532227,5.34277344 C16.7403981,3.60578559 17.3281201,2.35921602 18.3164062,1.60302734 C19.3046924,0.846838667 20.5400317,0.46875 22.0224609,0.46875 C23.6471435,0.46875 24.9236607,0.906733901 25.8520508,1.78271484 C26.7804408,2.65869579 27.2446289,3.74804036 27.2446289,5.05078125 C27.2446289,5.79199589 27.1117364,6.49763662 26.8459473,7.16772461 C26.5801582,7.8378126 26.1590198,8.53970987 25.5825195,9.2734375 C25.2006817,9.76009358 24.5118865,10.4601191 23.5161133,11.3735352 C22.5203401,12.2869512 21.8895684,12.8933904 21.6237793,13.1928711 C21.3579902,13.4923518 21.1427417,13.784341 20.9780273,14.0688477 L27.2446289,14.0688477 Z"></path>
</svg>
