<?xml version="1.0" encoding="UTF-8"?>
<svg viewBox="0 0 24 68" version="1.1" xmlns="http://www.w3.org/2000/svg" xmlns:xlink="http://www.w3.org/1999/xlink">
    <!-- Generator: Sketch 54.1 (76490) - https://sketchapp.com -->
    <title>i</title>
    <desc>Created with Sketch.</desc>
    <path d="M20.879,7.941 C20.879,9.94301001 20.1878402,11.6589929 18.8055,13.089 C17.4231598,14.5190071 15.73101,15.234 13.729,15.234 C11.72699,15.234 10.0110072,14.5190071 8.581,13.089 C7.15099285,11.6589929 6.436,9.94301001 6.436,7.941 C6.436,5.93898999 7.15099285,4.24684024 8.581,2.8645 C10.0110072,1.48215975 11.72699,0.791 13.729,0.791 C15.6356762,0.791 17.3039928,1.50599285 18.734,2.936 C20.1640071,4.36600715 20.879,6.0343238 20.879,7.941 Z M23.739,66.428 C23.739,66.904669 23.500669,67.143 23.024,67.143 L0.859,67.143 C0.38233095,67.143 0.144,66.904669 0.144,66.428 C0.144,66.1419986 0.787493565,65.8321683 2.0745,65.4985 C3.36150644,65.1648317 4.33866333,64.5690043 5.006,63.711 C6.34067334,62.0903252 7.008,60.3743424 7.008,58.563 L7.008,35.683 C7.008,26.149619 11.2026247,20.9540043 19.592,20.096 C17.7806576,22.6700129 16.875,25.720649 16.875,29.248 L16.875,58.563 C16.875,60.3743424 17.4708274,62.0188259 18.6625,63.4965 C19.8541726,64.9741741 21.3079914,65.713 23.024,65.713 C23.500669,65.713 23.739,65.9513309 23.739,66.428 Z"></path>
</svg>