<?xml version="1.0" encoding="UTF-8"?>
<svg viewBox="0 0 327 464" version="1.1" xmlns="http://www.w3.org/2000/svg" xmlns:xlink="http://www.w3.org/1999/xlink">
    <!-- Generator: Sketch 53.2 (72643) - https://sketchapp.com -->
    <title>Combined Shape</title>
    <desc>Created with Sketch.</desc>
    <path d="M307,157 L240.25,157 C234.727153,157 230.25,152.522847 230.25,147 C230.25,141.477153 234.727153,137 240.25,137 L317,137 C322.522847,137 327,141.477153 327,147 L327,454 C327,459.522847 322.522847,464 317,464 L10,464 C4.4771525,464 0,459.522847 0,454 L0,147 C0,141.477153 4.4771525,137 10,137 L86.75,137 C92.2728475,137 96.75,141.477153 96.75,147 C96.75,152.522847 92.2728475,157 86.75,157 L20,157 L20,444 L307,444 L307,157 Z M154.565827,4.62508191 C156.341815,1.84404533 159.455558,5.68434189e-14 163,5.68434189e-14 C165.803621,5.68434189e-14 168.337768,1.15375726 170.153542,3.01237399 C170.181681,3.03986825 170.209697,3.06756173 170.23759,3.09545443 L249.071068,81.9289322 C252.976311,85.8341751 252.976311,92.1658249 249.071068,96.0710678 C245.165825,99.9763107 238.834175,99.9763107 234.928932,96.0710678 L173,34.1421356 L173,284.441079 C173,289.963927 168.522847,294.441079 163,294.441079 C157.477153,294.441079 153,289.963927 153,284.441079 L153,34.4751801 L91.4041123,96.0710678 C87.4988694,99.9763107 81.1672196,99.9763107 77.2619767,96.0710678 C73.3567338,92.1658249 73.3567338,85.8341751 77.2619767,81.9289322 L154.565827,4.62508191 Z"></path>
</svg>