<?xml version="1.0" encoding="UTF-8"?>
<svg viewBox="0 0 22 22" version="1.1" xmlns="http://www.w3.org/2000/svg" xmlns:xlink="http://www.w3.org/1999/xlink">
  <!-- Generator: Sketch 52.5 (67469) - http://www.bohemiancoding.com/sketch -->
  <title>link</title>
  <desc>Created with Sketch.</desc>
  <path d="M12.2949359,10.8392881 L12.2951052,10.8392881 C12.2950227,10.8460656 12.2949813,10.852853 12.2949813,10.85965 C12.2949813,11.770545 13.038584,12.5089713 13.9558646,12.5089713 L19.3281043,12.5089713 C20.2453848,12.5089713 20.9889876,11.770545 20.9889876,10.85965 C20.9889876,9.94875506 20.2453848,9.21032878 19.3281043,9.21032878 L14.1340841,9.21032878 C13.8705587,8.20373519 13.3715048,7.2914729 12.6988456,6.53503408 C13.0979747,6.42083547 13.5197243,6.35965005 13.9558646,6.35965005 L19.3281043,6.35965005 C21.8308079,6.35965005 23.85965,8.37436867 23.85965,10.85965 C23.85965,13.3449314 21.8308079,15.35965 19.3281043,15.35965 L13.9558646,15.35965 C11.4599994,15.35965 9.43540969,13.3559265 9.42436423,10.880012 L9.42419484,10.880012 C9.42427741,10.8732345 9.42431881,10.8664471 9.42431881,10.85965 C9.42431881,9.94875506 8.68071604,9.21032878 7.76343553,9.21032878 L2.39119579,9.21032878 C1.47391528,9.21032878 0.730312506,9.94875506 0.730312506,10.85965 C0.730312506,11.770545 1.47391528,12.5089713 2.39119579,12.5089713 L7.6261643,12.5089713 C7.88859303,13.5113778 8.38459505,14.4202361 9.05301669,15.1748183 C8.64428805,15.2950864 8.21145447,15.35965 7.76343553,15.35965 L2.39119579,15.35965 C-0.11150782,15.35965 -2.14034995,13.3449314 -2.14034995,10.85965 C-2.14034995,8.37436867 -0.11150782,6.35965005 2.39119579,6.35965005 L7.76343553,6.35965005 C10.2593007,6.35965005 12.2838904,8.36337356 12.2949359,10.8392881 Z" transform="translate(10.859650, 10.859650) scale(1, -1) rotate(45.000000) translate(-10.859650, -10.859650) "></path>
</svg>
