<?xml version="1.0" encoding="UTF-8"?>
<svg viewBox="0 0 486 486" version="1.1" xmlns="http://www.w3.org/2000/svg" xmlns:xlink="http://www.w3.org/1999/xlink">
    <!-- Generator: Sketch 55.2 (78181) - https://sketchapp.com -->
    <title>More</title>
    <desc>Created with Sketch.</desc>
    <path d="M59.5,288 C34.9233286,288 15,268.076671 15,243.5 C15,218.923329 34.9233286,199 59.5,199 C84.0766714,199 104,218.923329 104,243.5 C104,268.076671 84.0766714,288 59.5,288 Z M242.5,288 C217.923329,288 198,268.076671 198,243.5 C198,218.923329 217.923329,199 242.5,199 C267.076671,199 287,218.923329 287,243.5 C287,268.076671 267.076671,288 242.5,288 Z M426.5,288 C401.923329,288 382,268.076671 382,243.5 C382,218.923329 401.923329,199 426.5,199 C451.076671,199 471,218.923329 471,243.5 C471,268.076671 451.076671,288 426.5,288 Z"></path>
</svg>