<?xml version="1.0" encoding="UTF-8"?>
<svg viewBox="0 0 27 24" version="1.1" xmlns="http://www.w3.org/2000/svg" xmlns:xlink="http://www.w3.org/1999/xlink">
  <!-- Generator: Sketch 52.5 (67469) - http://www.bohemiancoding.com/sketch -->
  <title>Ordered List</title>
  <desc>Created with Sketch.</desc>
  <path d="M7,10 L27,10 L27,12 L7,12 L7,10 Z M7,19 L27,19 L27,21 L7,21 L7,19 Z M7,2 L27,2 L27,4 L7,4 L7,2 Z M2.61522843,6.08050941 L1.47411168,6.08050941 L1.47411168,1.70601249 C1.05718912,2.10256943 0.565823472,2.39585194 -1.86517468e-14,2.58586881 L-1.86517468e-14,1.53251969 C0.297801827,1.43338046 0.621318051,1.24543181 0.970558376,0.968668109 C1.3197987,0.691904408 1.55939021,0.369018268 1.6893401,6.66133815e-15 L2.61522843,6.66133815e-15 L2.61522843,6.08050941 Z M4,13.0023756 L4,14.0805094 L0,14.0805094 C0.0433166294,13.672937 0.173264569,13.2867128 0.389847716,12.9218254 C0.606430863,12.5569379 1.03417616,12.0729529 1.67309645,11.4698559 C2.18748142,10.9824213 2.5028759,10.6519622 2.61928934,10.4784685 C2.77631212,10.238882 2.85482234,10.002053 2.85482234,9.7679742 C2.85482234,9.50911064 2.7864643,9.31014669 2.64974619,9.17107637 C2.51302808,9.03200605 2.32419748,8.96247194 2.08324873,8.96247194 C1.84500727,8.96247194 1.65549986,9.03544834 1.51472081,9.18140332 C1.37394177,9.32735831 1.2927243,9.56969503 1.27106599,9.90842075 L0.134010152,9.79275889 C0.201692386,9.15386159 0.414211411,8.6953495 0.771573604,8.41720887 C1.1289358,8.13906823 1.57563184,8 2.11167513,8 C2.69915691,8 3.16074282,8.16109884 3.4964467,8.48330136 C3.83215058,8.80550388 4,9.20618561 4,9.68535859 C4,9.95799149 3.95194634,10.2175396 3.85583756,10.4640108 C3.75972879,10.7104819 3.60744605,10.9686532 3.39898477,11.2385322 C3.26091302,11.4175336 3.01184613,11.6750163 2.65177665,12.0109882 C2.29170717,12.3469601 2.06362146,12.57002 1.96751269,12.6801747 C1.87140392,12.7903294 1.79357052,12.8977286 1.73401015,13.0023756 L4,13.0023756 Z M1.22124533e-14,21.4736357 L1.10456853,21.3373199 C1.13976329,21.6237221 1.23451699,21.8426513 1.38883249,21.994114 C1.54314798,22.1455768 1.72994814,22.221307 1.94923858,22.221307 C2.18477275,22.221307 2.38307872,22.1304307 2.54416244,21.9486755 C2.70524615,21.7669202 2.7857868,21.5218296 2.7857868,21.2133965 C2.7857868,20.9214865 2.70863021,20.6901651 2.55431472,20.5194253 C2.39999923,20.3486855 2.21184544,20.2633169 1.98984772,20.2633169 C1.84365409,20.2633169 1.66903655,20.292232 1.46598985,20.3500633 L1.59187817,19.4041145 C1.90050916,19.4123761 2.1360398,19.3442189 2.29847716,19.1996408 C2.46091452,19.0550627 2.54213198,18.8629834 2.54213198,18.6233969 C2.54213198,18.4196107 2.48257251,18.2571349 2.36345178,18.1359647 C2.24433105,18.0147946 2.08595699,17.9542104 1.88832487,17.9542104 C1.69340004,17.9542104 1.52690424,18.023056 1.38883249,18.1607494 C1.25076073,18.2984428 1.16683602,18.4994721 1.13705584,18.7638434 L0.0852791878,18.5820891 C0.158376,18.2158247 0.268696386,17.9232306 0.416243655,17.7042981 C0.563790924,17.4853657 0.769541827,17.3132515 1.03350254,17.1879505 C1.29746325,17.0626495 1.59323017,17 1.92081218,17 C2.48122108,17 2.93062437,17.1817525 3.26903553,17.5452631 C3.54788634,17.8426808 3.68730964,18.1786476 3.68730964,18.5531736 C3.68730964,19.0846701 3.4016949,19.5087593 2.83045685,19.8254541 C3.17157531,19.8998085 3.44433062,20.066415 3.64873096,20.3252786 C3.85313131,20.5841421 3.95532995,20.8967014 3.95532995,21.2629658 C3.95532995,21.7944623 3.76446891,22.2474667 3.38274112,22.6219927 C3.00101332,22.9965187 2.52589117,23.1837789 1.95736041,23.1837789 C1.41860983,23.1837789 0.971913787,23.0261224 0.617258883,22.7108045 C0.26260398,22.3954867 0.0568530761,21.9831012 1.22124533e-14,21.4736357 Z"></path>
</svg>
