<?xml version="1.0" encoding="UTF-8"?>
<svg viewBox="0 0 248 478" version="1.1" xmlns="http://www.w3.org/2000/svg" xmlns:xlink="http://www.w3.org/1999/xlink">
  <!-- Generator: Sketch 52.5 (67469) - http://www.bohemiancoding.com/sketch -->
  <title>Combined-Shape-Copy</title>
  <desc>Created with Sketch.</desc>
  <path d="M247.986309,435.15913 L248,435.15913 L248,440.865679 C248,461.367498 192.660704,478 124.397041,478 L124,478 L123.61665,478 C55.339296,478 0,461.367498 0,440.865679 L0,435.15913 L0.013691,435.15913 C0.424423,423.732114 15.114939,413.43249 38.499282,406.125324 C92.633764,361.92045 100.957933,298.04886 102.231202,280.344641 C99.547753,278.911044 97.576239,277.171243 96.604174,275.278339 C81.845203,271.088897 71.987634,263.572955 71.987634,254.971377 C71.987634,247.692048 79.065916,241.178231 90.224136,236.821769 C95.933311,227.593862 94.988628,220.857351 93.386773,216.974114 C66.771337,209.416417 46.782378,191.378156 41.93574,169.373147 L1.79353,20.6549224 L1.834603,20.6549224 C1.779839,20.4183094 1.752457,20.1816964 1.752457,19.9450834 C1.752457,8.93562007 55.489897,2.84217094e-14 121.809429,2.84217094e-14 L124,2.84217094e-14 L126.190571,2.84217094e-14 C192.496412,2.84217094e-14 246.247543,8.93562007 246.247543,19.9450834 C246.247543,20.1816964 246.220161,20.4183094 246.165397,20.6549224 L246.20647,20.6549224 L206.06426,169.373147 L206.050569,169.373147 C201.217622,191.378156 181.228663,209.416417 154.626918,216.974114 C153.011372,220.857351 152.066689,227.593862 157.789555,236.821769 C168.947775,241.178231 176.026057,247.692048 176.026057,254.971377 C176.026057,263.572955 166.154797,271.088897 151.395826,275.278339 C150.423761,277.171243 148.452247,278.911044 145.782489,280.344641 C147.042067,298.04886 155.366236,361.92045 209.514409,406.125324 C232.87137,413.43249 247.561886,423.732114 247.986309,435.15913 Z M25,26.6753052 C38.232325,31.6758106 76.909838,35.2953586 122.562467,35.2953586 C179.137154,35.2953586 225,29.7367372 225,22.87983 C225,19.4602274 213.593412,16.3635224 195.140169,14.1181435 C198.305907,15.314478 200.015236,16.5898544 200.015236,17.9136186 C200.015236,24.7705257 154.15239,30.3291472 97.577702,30.3291472 C69.217332,30.3291472 43.548767,28.9323075 25,26.6753052 Z" id="Combined-Shape-Copy" ></path>
</svg>
