<?xml version="1.0" encoding="UTF-8"?>
<svg viewBox="0 0 189 279" version="1.1" xmlns="http://www.w3.org/2000/svg" xmlns:xlink="http://www.w3.org/1999/xlink">
  <!-- Generator: Sketch 52.5 (67469) - http://www.bohemiancoding.com/sketch -->
  <title>Combined Shape</title>
  <desc>Created with Sketch.</desc>
  <path d="M0.609603734,278.483781 C45.4806186,212.744224 125.120477,100.924863 145.792564,72.0080022 C136.914322,80.1581531 102.412597,126.126075 42.287388,209.911767 C32.8030378,203.070003 28.1540931,193.229756 28.3404904,180.391114 C32.1141498,181.847069 36.1234314,182.60697 40.3683322,182.670816 C36.5185723,180.496729 32.8601149,176.328687 29.39296,170.166692 C30.0634626,166.484319 31.0527039,162.604296 32.3606837,158.526624 C35.8224688,147.734389 41.3841804,136.603082 48.1354094,125.708969 C49.4513064,133.912316 52.6672761,141.044737 57.7833185,147.10623 C56.4527394,132.341787 60.7526874,114.890118 70.6831625,94.7512227 C78.2402199,85.6701709 86.0450651,77.270889 93.3880525,70.0025648 C89.0097753,83.4415045 89.130121,93.2136096 93.7490896,99.3188801 C94.835693,85.4125608 98.045922,72.4843332 103.379777,60.5341973 C110.518576,54.0796456 116.767194,49.1263714 121.286414,46.2055792 C125.629911,43.3983572 130.697228,39.874993 136.488363,35.6354864 C135.683105,40.2771584 135.714104,43.4694709 136.581361,45.212424 C138.169459,48.4040719 138.169459,52.4141368 136.581361,57.2426187 C139.686235,45.4852296 146.59434,34.5123797 157.305677,24.3240689 C162.519176,19.3651408 166.698617,14.5192775 169.844002,9.78647905 C173.681781,6.69482721 177.681754,3.44270111 181.843922,0.0301007453 C184.536609,8.37410568 186.416916,16.8961781 187.484845,25.596318 L180.196389,36.491558 C182.891816,33.9661178 185.47489,31.769243 187.945612,29.9009339 C188.750352,38.7020068 188.73483,47.6828752 187.899046,56.843539 C176.991189,74.6943391 165.255821,87.7377896 152.692943,95.9738904 C162.403269,91.9668014 172.886473,86.6220566 184.142554,79.939656 C179.604082,99.5180104 171.550792,119.866787 159.982686,140.985985 C145.723032,150.412341 131.048363,154.396535 115.95868,152.938565 C117.588567,160.137699 128.446504,162.605866 148.53249,160.343064 C146.332242,163.811559 144.041235,167.299946 141.659469,170.808228 C132.407025,183.049481 123.337894,192.984283 114.452077,200.612632 C104.367807,202.406488 95.3824321,202.355099 87.495956,200.458459 C92.273711,203.71546 97.5907282,206.543439 103.447007,208.942396 C87.6516656,219.265332 72.4559929,222.043242 57.8599893,217.276125 C56.7763811,216.948792 55.7226004,216.602962 54.6986473,216.238637 C44.178552,230.054706 36.3771442,242.991201 31.2944237,255.04812 C23.0945298,258.63386 12.8662565,266.445747 0.609603734,278.483781 Z" id="Combined-Shape"></path>
</svg>
