<?xml version="1.0" encoding="UTF-8"?>
<svg viewBox="0 0 26 18" version="1.1" xmlns="http://www.w3.org/2000/svg" xmlns:xlink="http://www.w3.org/1999/xlink">
  <!-- Generator: Sketch 52.5 (67469) - http://www.bohemiancoding.com/sketch -->
  <title>strikethrough</title>
  <desc>Created with Sketch.</desc>
  <path d="M19.9914813,10.4990234 C20.1592234,10.9929201 20.2430939,11.5430495 20.2430939,12.1494141 C20.2430939,13.7177813 19.587827,15.0659123 18.2772736,16.1938477 C16.9667201,17.321783 15.0277747,17.8857422 12.460379,17.8857422 C10.1293127,17.8857422 8.28436043,17.4130907 6.92546692,16.4677734 C5.56657341,15.5224562 4.67766628,14.2387776 4.25871887,12.6166992 L8.80266419,11.9238281 C8.99602453,12.8046919 9.38811045,13.4733864 9.97893372,13.9299316 C10.569757,14.3864769 11.3968972,14.6147461 12.460379,14.6147461 C13.6312833,14.6147461 14.5121339,14.3999045 15.1029572,13.9702148 C15.5004201,13.6694321 15.6991486,13.2666041 15.6991486,12.7617188 C15.6991486,12.417967 15.5917278,12.1333019 15.3768829,11.9077148 C15.1512959,11.69287 14.6464181,11.4941415 13.8622345,11.3115234 C12.5964323,11.0323024 11.4912723,10.7614693 10.5467515,10.4990234 L0,10.4990234 L0,9.49902344 L26,9.49902344 L26,10.4990234 L19.9914813,10.4990234 Z M6.17892169,8.49902344 C5.31772836,7.64596017 4.88713684,6.56393544 4.88713684,5.25292969 C4.88713684,3.7705004 5.47258021,2.52441911 6.6434845,1.51464844 C7.81438879,0.504877764 9.62980032,0 12.0897736,0 C14.4315821,0 16.1717991,0.381343843 17.3104767,1.14404297 C18.4491543,1.90674209 19.2333261,3.0346605 19.6630157,4.52783203 L15.3929962,5.31738281 C15.2103781,4.65136386 14.863946,4.14111505 14.3536896,3.78662109 C13.8434331,3.43212713 13.1156572,3.25488281 12.17034,3.25488281 C10.9779512,3.25488281 10.1239558,3.42138505 9.60832825,3.75439453 C9.26457653,3.99072384 9.09270325,4.29687312 9.09270325,4.67285156 C9.09270325,4.9951188 9.24309237,5.26904184 9.54387512,5.49462891 C9.95208029,5.79541166 11.3619783,6.21972382 13.7736115,6.76757812 C15.8938749,7.24924154 17.4515685,7.82638541 18.4467267,8.49902344 L6.17892169,8.49902344 Z"></path>
</svg>
