<?xml version="1.0" encoding="UTF-8"?>
<svg viewBox="0 0 28 23" version="1.1" xmlns="http://www.w3.org/2000/svg" xmlns:xlink="http://www.w3.org/1999/xlink">
  <!-- Generator: Sketch 52.5 (67469) - http://www.bohemiancoding.com/sketch -->
  <title>unordered list</title>
  <desc>Created with Sketch.</desc>
  <path d="M3,6 C1.34314575,6 0,4.65685425 0,3 C0,1.34314575 1.34314575,0 3,0 C4.65685425,0 6,1.34314575 6,3 C6,4.65685425 4.65685425,6 3,6 Z M3,14 C1.34314575,14 0,12.6568542 0,11 C0,9.34314575 1.34314575,8 3,8 C4.65685425,8 6,9.34314575 6,11 C6,12.6568542 4.65685425,14 3,14 Z M3,23 C1.34314575,23 0,21.6568542 0,20 C0,18.3431458 1.34314575,17 3,17 C4.65685425,17 6,18.3431458 6,20 C6,21.6568542 4.65685425,23 3,23 Z M8,10 L28,10 L28,12 L8,12 L8,10 Z M8,19 L28,19 L28,21 L8,21 L8,19 Z M8,2 L28,2 L28,4 L8,4 L8,2 Z"></path>
</svg>
