<?xml version="1.0" encoding="UTF-8"?>
<svg viewBox="0 0 252 252" version="1.1" xmlns="http://www.w3.org/2000/svg" xmlns:xlink="http://www.w3.org/1999/xlink">
  <!-- Generator: Sketch 52.5 (67469) - http://www.bohemiancoding.com/sketch -->
  <title>Combined Shape</title>
  <desc>Created with Sketch.</desc>
  <path d="M107.677079,233.809221 L97.4900843,241.666951 C88.452331,248.638214 75.4744588,246.962993 68.5031954,237.92524 C66.2658339,235.024658 64.8396373,231.581515 64.3706695,227.94844 L62.7236306,215.188893 C60.9781256,201.666534 50.3334663,191.021874 36.8111071,189.276369 L24.0515601,187.62933 C12.7314758,186.168101 4.73929451,175.8068 6.20052349,164.486716 C6.66949119,160.853641 8.09568784,157.410498 10.3330493,154.509916 L18.1907791,144.322921 C26.5182726,133.526911 26.5182726,118.473089 18.1907791,107.677079 L10.3330493,97.4900843 C3.3617859,88.452331 5.0370069,75.4744588 14.0747602,68.5031954 C16.9753421,66.2658339 20.4184854,64.8396373 24.0515601,64.3706695 L36.8111071,62.7236306 C50.3334663,60.9781256 60.9781256,50.3334663 62.7236306,36.8111071 L64.3706695,24.0515601 C65.8318985,12.7314758 76.1932001,4.73929451 87.5132844,6.20052349 C91.146359,6.66949119 94.5895023,8.09568784 97.4900843,10.3330493 L107.677079,18.1907791 C118.473089,26.5182726 133.526911,26.5182726 144.322921,18.1907791 L154.509916,10.3330493 C163.547669,3.3617859 176.525541,5.0370069 183.496805,14.0747602 C185.734166,16.9753421 187.160363,20.4184854 187.62933,24.0515601 L189.276369,36.8111071 C191.021874,50.3334663 201.666534,60.9781256 215.188893,62.7236306 L227.94844,64.3706695 C239.268524,65.8318985 247.260705,76.1932001 245.799477,87.5132844 C245.330509,91.146359 243.904312,94.5895023 241.666951,97.4900843 L233.809221,107.677079 C225.481727,118.473089 225.481727,133.526911 233.809221,144.322921 L241.666951,154.509916 C248.638214,163.547669 246.962993,176.525541 237.92524,183.496805 C235.024658,185.734166 231.581515,187.160363 227.94844,187.62933 L215.188893,189.276369 C201.666534,191.021874 191.021874,201.666534 189.276369,215.188893 L187.62933,227.94844 C186.168101,239.268524 175.8068,247.260705 164.486716,245.799477 C160.853641,245.330509 157.410498,243.904312 154.509916,241.666951 L144.322921,233.809221 C133.526911,225.481727 118.473089,225.481727 107.677079,233.809221 Z M126,180 C155.823376,180 180,155.823376 180,126 C180,96.1766235 155.823376,72 126,72 C96.1766235,72 72,96.1766235 72,126 C72,155.823376 96.1766235,180 126,180 Z" id="Combined-Shape" fill="#000000" fill-rule="nonzero" transform="translate(126.000000, 126.000000) rotate(10.000000) translate(-126.000000, -126.000000) "></path>
</svg>
