<?xml version="1.0" encoding="UTF-8"?>
<svg viewBox="0 0 28 18" version="1.1" xmlns="http://www.w3.org/2000/svg" xmlns:xlink="http://www.w3.org/1999/xlink">
  <!-- Generator: Sketch 52.5 (67469) - http://www.bohemiancoding.com/sketch -->
  <title>h3</title>
  <desc>Created with Sketch.</desc>
  <path d="M0.684570312,17 L0.684570312,0.536132812 L4.00878906,0.536132812 L4.00878906,7.01611328 L10.5224609,7.01611328 L10.5224609,0.536132812 L13.8466797,0.536132812 L13.8466797,17 L10.5224609,17 L10.5224609,9.80126953 L4.00878906,9.80126953 L4.00878906,17 L0.684570312,17 Z M16.4746094,12.6313477 L19.5292969,12.2607422 C19.6266281,13.0393919 19.8886697,13.6346008 20.3154297,14.0463867 C20.7421896,14.4581726 21.258786,14.6640625 21.8652344,14.6640625 C22.5166048,14.6640625 23.0650206,14.4169947 23.510498,13.9228516 C23.9559755,13.4287085 24.1787109,12.762374 24.1787109,11.9238281 C24.1787109,11.1302044 23.9653342,10.5013044 23.5385742,10.0371094 C23.1118143,9.57291435 22.5914744,9.34082031 21.9775391,9.34082031 C21.5732402,9.34082031 21.0903348,9.41943281 20.5288086,9.57666016 L20.8769531,7.00488281 C21.730473,7.02734386 22.3818337,6.84204298 22.8310547,6.44897461 C23.2802757,6.05590624 23.5048828,5.53369466 23.5048828,4.88232422 C23.5048828,4.32828499 23.3401709,3.88655764 23.0107422,3.55712891 C22.6813135,3.22770018 22.2433296,3.06298828 21.6967773,3.06298828 C21.1577121,3.06298828 20.6972675,3.25016089 20.3154297,3.62451172 C19.9335918,3.99886255 19.7014978,4.54540656 19.6191406,5.26416016 L16.7104492,4.77001953 C16.9125987,3.77424632 17.21769,2.97876274 17.6257324,2.38354492 C18.0337748,1.7883271 18.6027796,1.32039558 19.3327637,0.979736328 C20.0627478,0.639077073 20.8806921,0.46875 21.7866211,0.46875 C23.3364335,0.46875 24.5792596,0.962885684 25.5151367,1.95117188 C26.2862994,2.75976967 26.671875,3.67317199 26.671875,4.69140625 C26.671875,6.13640045 25.8820066,7.28938372 24.3022461,8.15039062 C25.2456102,8.35254007 25.9999158,8.80549778 26.5651855,9.50927734 C27.1304553,10.2130569 27.4130859,11.0628205 27.4130859,12.0585938 C27.4130859,13.503588 26.8852592,14.7351837 25.8295898,15.753418 C24.7739205,16.7716522 23.4599688,17.2807617 21.8876953,17.2807617 C20.397779,17.2807617 19.1624398,16.8521364 18.1816406,15.994873 C17.2008415,15.1376096 16.6318367,14.0164457 16.4746094,12.6313477 Z"></path>
</svg>
