<?xml version="1.0" encoding="UTF-8"?>
<svg viewBox="0 0 152 100" version="1.1" xmlns="http://www.w3.org/2000/svg" xmlns:xlink="http://www.w3.org/1999/xlink">
  <path d="M7,6 C6.44771525,6 6,6.44771525 6,7 L6,93 C6,93.5522847 6.44771525,94 7,94 L145,94 C145.552285,94 146,93.5522847 146,93 L146,7 C146,6.44771525 145.552285,6 145,6 L7,6 Z M7,0 L145,0 C148.865993,0 152,3.13400675 152,7 L152,93 C152,96.8659932 148.865993,100 145,100 L7,100 C3.13400675,100 0,96.8659932 0,93 L0,7 C0,3.13400675 3.13400675,0 7,0 Z M134,85 L19,85 L59.5,40.8614188 L80.6207573,63.8796969 L110.263232,21.0598874 L134,85 Z M32,37 C25.9248678,37 21,32.0751322 21,26 C21,19.9248678 25.9248678,15 32,15 C38.0751322,15 43,19.9248678 43,26 C43,32.0751322 38.0751322,37 32,37 Z"></path>
</svg>
