<?xml version="1.0" encoding="UTF-8"?>
<svg viewBox="0 0 232 232" version="1.1" xmlns="http://www.w3.org/2000/svg" xmlns:xlink="http://www.w3.org/1999/xlink">
    <!-- Generator: Sketch 55 (78076) - https://sketchapp.com -->
    <title>Shape</title>
    <desc>Created with Sketch.</desc>
    <path d="M190.538444,216.286966 C185.277288,220.311357 176.828935,223.502687 165.193383,225.860954 C153.392808,228.252669 138.979011,229.954144 121.163411,230.791156 C83.0854297,232.516898 57.8408698,230.039166 45.429731,223.357963 L45.4168414,223.360371 C45.3843917,223.339709 45.351952,223.319032 45.3195224,223.298341 C43.8844176,222.518114 42.6230273,221.680988 41.5353515,220.786964 C26.4356096,210.369923 13.7209396,196.742817 4.37708753,180.891391 C7.69151234,179.073809 10.0686259,178.232064 10.8116606,178.021094 C14.4582856,176.985704 17.7252355,172.042178 20.1553502,170.33364 C21.7754268,169.194614 24.810891,169.194614 29.261743,170.33364 C29.279177,168.608959 30.1173035,166.925452 31.7761224,165.283117 C34.2643507,162.819616 37.6000683,163.585689 42.2437468,165.283117 C42.2437468,160.911837 43.5934834,155.8345 46.2929566,150.051107 C44.2255642,145.212694 42.7032941,140.968625 42.4042797,138.941972 C41.8352979,135.08554 42.7788115,128.834403 45.2348204,120.188562 C62.0542674,64.1678011 71.6330856,34.0103288 73.9712751,29.7161446 C77.4785594,23.2748683 85.1569401,16.1367329 91.6872994,10.7285321 C98.2176587,5.32033138 118.471112,0.837444455 124.056042,0.837444455 C129.640972,0.837444455 146.101213,10.3449005 150.743587,13.1395207 C155.385962,15.9341409 168.700998,39.3586619 171.360557,43.7481554 C174.020116,48.1376488 176.97566,58.1020145 178.760194,65.7617165 C180.544728,73.4214185 187.987469,114.822029 189.244689,122.293507 C190.501909,129.764985 196.743467,148.501154 196.743467,155.357672 C196.743467,160.625414 192.438532,173.293642 189.427013,180.487841 C195.428956,183.283382 205.620448,187.75042 214.311555,191.926591 C207.531458,201.079117 199.540604,209.280686 190.575719,216.294572 C190.563295,216.292036 190.550869,216.289501 190.538444,216.286966 L190.538444,216.286966 Z M154.623335,177.660781 C164.928511,171.297598 176.374696,162.104372 176.748695,158.913227 C177.110472,155.826362 176.167299,150.132213 173.919175,141.830781 C166.598251,108.60904 162.339668,89.6778173 161.143427,85.0371135 C159.349066,78.0760578 157.882926,68.3057849 155.875213,64.0972346 C153.867501,59.8886843 138.503312,49 122.903052,49 C107.302793,49 87.9231792,61.9540524 86.0469558,64.0972346 C84.7961401,65.5260227 84.0835889,67.5628151 83.9093022,70.2076118 L74.0079652,108.571232 C69.2186001,129.304047 66.8239175,141.070666 66.8239175,143.871091 C66.8239175,146.671516 75.2899657,156.611027 92.0355792,173.640423 C104.402498,179.121454 110.19037,177.835064 127.774564,178.722397 C139.49736,179.313953 148.44695,178.960081 154.623335,177.660781 Z"></path>
</svg>