<?xml version="1.0" encoding="UTF-8"?>
<svg viewBox="0 0 471 470" version="1.1" xmlns="http://www.w3.org/2000/svg" xmlns:xlink="http://www.w3.org/1999/xlink">
    <!-- Generator: Sketch 55.2 (78181) - https://sketchapp.com -->
    <title>Path</title>
    <desc>Created with Sketch.</desc>
    <path d="M357.137417,59 L398.5,59 C417.277681,59 432.5,74.2223185 432.5,93 C432.5,111.777681 417.277681,127 398.5,127 L72.5,127 C53.7223185,127 38.5,111.777681 38.5,93 C38.5,74.2223185 53.7223185,59 72.5,59 L113.862583,59 C133.959364,27.7213174 169.059821,7 209,7 L262,7 C301.940179,7 337.040636,27.7213174 357.137417,59 Z"></path>
    <path d="M401.5,147.5 L68.5,147.5 L68.5,401 C68.5,434.965512 96.0344879,462.5 130,462.5 L340,462.5 C373.965512,462.5 401.5,434.965512 401.5,401 L401.5,147.5 Z" id="Path"></path>
</svg>