<?xml version="1.0" encoding="UTF-8"?>
<svg viewBox="0 0 15 17" version="1.1" xmlns="http://www.w3.org/2000/svg" xmlns:xlink="http://www.w3.org/1999/xlink">
  <!-- Generator: Sketch 52.5 (67469) - http://www.bohemiancoding.com/sketch -->
  <title>underline</title>
  <desc>Created with Sketch.</desc>
  <path d="M9.91748047,11.9267578 L9.91748047,10.1411133 C9.48323351,10.7775097 8.91235705,11.2791323 8.20483398,11.6459961 C7.49731092,12.0128599 6.75049221,12.1962891 5.96435547,12.1962891 C5.16324469,12.1962891 4.44450188,12.0203468 3.80810547,11.668457 C3.17170906,11.3165673 2.71126444,10.8224316 2.42675781,10.1860352 C2.14225118,9.54963875 2,8.66992749 2,7.546875 L2,0 L5.15576172,0 L5.15576172,5.48046875 C5.15576172,7.15756047 5.21378523,8.18513808 5.32983398,8.56323242 C5.44588274,8.94132676 5.65738779,9.24080293 5.96435547,9.46166992 C6.27132315,9.68253691 6.66064217,9.79296875 7.13232422,9.79296875 C7.67138941,9.79296875 8.15429474,9.64510239 8.58105469,9.34936523 C9.00781463,9.05362808 9.2998039,8.68676977 9.45703125,8.2487793 C9.6142586,7.81078883 9.69287109,6.73828979 9.69287109,5.03125 L9.69287109,0 L12.8486328,0 L12.8486328,11.9267578 L9.91748047,11.9267578 Z M0,16 L15,16 L15,17 L0,17 L0,16 Z"></path>
</svg>
