
<svg role="img" viewBox="0 0 40 40" xmlns="http://www.w3.org/2000/svg">
  <path d="M22.7,23.563l-0.146-2.705c0.733-0.842,1.261-2.058,1.443-3.454c0.333-0.116,0.579-0.542,0.579-1.053
    c0-0.474-0.212-0.873-0.507-1.021v-2.154h-0.007c-0.081-2.07-1.805-3.727-3.928-3.727s-3.846,1.657-3.927,3.727h-0.007v2.167
    c-0.28,0.161-0.476,0.55-0.476,1.008c0,0.495,0.231,0.907,0.547,1.04c0.185,1.42,0.722,2.654,1.474,3.5l-0.143,2.672l-7.467,4.293
    v0.269c1.073,1.431,2.771,6.528,2.771,6.528h7.244h7.244c0,0,1.698-5.098,2.772-6.528v-0.269L22.7,23.563z"/>
  <path d="M32.34,17.348l-0.123-2.306c0.625-0.719,1.075-1.754,1.23-2.944c0.284-0.1,0.495-0.463,0.495-0.9
    c0-0.404-0.182-0.744-0.433-0.873V8.491h-0.007c-0.067-1.766-1.539-3.178-3.349-3.178c-1.811,0-3.28,1.412-3.35,3.178h-0.006v1.849
    c-0.237,0.136-0.406,0.469-0.406,0.858c0,0.422,0.197,0.774,0.467,0.887c0.156,1.211,0.617,2.263,1.256,2.986l-0.121,2.277
    l-3.353,1.927c-0.248,0.716-0.577,1.376-0.992,1.936l0.091,1.713l6.752,3.882h5.853c0,0,1.448-4.347,2.364-5.566V21.01
    L32.34,17.348z"/>
  <path d="M7.928,17.348l0.123-2.306c-0.625-0.719-1.075-1.754-1.231-2.944c-0.284-0.1-0.495-0.463-0.495-0.9
    c0-0.404,0.181-0.744,0.432-0.873V8.491h0.007c0.067-1.766,1.539-3.178,3.349-3.178c1.809,0,3.281,1.412,3.349,3.178h0.006v1.849
    c0.238,0.136,0.407,0.469,0.407,0.858c0,0.422-0.198,0.774-0.467,0.887c-0.157,1.211-0.617,2.263-1.257,2.986l0.122,2.277
    l3.353,1.927c0.249,0.716,0.578,1.376,0.993,1.936l-0.091,1.713l-6.752,3.882H3.922c0,0-1.448-4.347-2.364-5.566V21.01
    L7.928,17.348z"/>
</svg>
